<?xml version="1.0" encoding="UTF-8"?>
<svg xmlns="http://www.w3.org/2000/svg" width="79" height="18" viewBox="0 0 79 18" fill="none">
  <path fill-rule="evenodd" clip-rule="evenodd" d="M11.1343 13.3393C12.0469 13.3409 12.5029 14.4514 11.8574 15.1007L9.76498 17.2068C9.57316 17.4009 9.31208 17.5098 9.04035 17.5098H4.66518C4.38887 17.5098 4.12323 17.4009 3.92761 17.2076L0.378299 13.6902L0.304466 13.6172C0.108847 13.4231 0 13.1612 0 12.8872V8.59423C0 8.32022 0.109608 8.05685 0.305988 7.86352L7.90089 0.337123C8.09651 0.143026 8.36139 0.0341797 8.63769 0.0341797H12.987C13.2633 0.0341797 13.5289 0.143026 13.7238 0.336362L13.8052 0.417045L17.3469 3.92677C17.5426 4.12087 17.6522 4.38347 17.6522 4.65749V8.91621C17.6522 9.19023 17.5426 9.45359 17.3462 9.64692L15.2172 11.7561C14.5603 12.4069 13.4384 11.9472 13.4368 11.0269V3.28131C13.4353 2.36182 12.3141 1.90284 11.6572 2.55135L2.54001 11.5742C1.88236 12.2242 2.34667 13.3378 3.27453 13.3386H11.1343V13.3393ZM34.3513 6.76492H36.5983V7.86176C37.1113 7.10136 38.1724 6.62335 39.305 6.62335C41.9409 6.62335 43.6923 8.4098 43.6923 11.2231C43.6923 14.0363 41.9409 15.8228 39.305 15.8228C38.1906 15.8228 37.1113 15.3273 36.6158 14.5669V17.6747H34.3513V6.76492ZM39.0218 13.894C40.4368 13.894 41.4279 12.8147 41.4279 11.2231C41.4279 9.63147 40.4376 8.53387 39.0218 8.53387C37.6061 8.53387 36.6158 9.6132 36.6158 11.2231C36.6158 12.8329 37.6061 13.894 39.0218 13.894ZM47.1745 4.39104C47.1745 3.61313 46.5907 3.04682 45.7945 3.04682C44.9984 3.04682 44.4146 3.63063 44.4146 4.39104C44.4146 5.15144 44.9984 5.71775 45.7945 5.71775C46.5907 5.71775 47.1745 5.16895 47.1745 4.39104ZM46.9272 6.76481H44.6802V15.6803H46.9272V6.76481ZM51.9137 10.2323C49.207 10.5147 48.0043 11.4524 48.0043 13.2039L48.0036 13.2046C48.0036 14.7437 49.2245 15.823 51.0992 15.823C52.2318 15.823 53.2579 15.2575 53.6469 14.5496V15.6815H55.8938V10.1623C55.8938 7.88029 54.2664 6.62437 51.967 6.62437C49.7916 6.62437 48.305 8.02186 48.0576 9.79081H50.2688C50.3929 8.87056 51.0292 8.35754 51.967 8.35754C52.9755 8.35754 53.6476 8.92308 53.6476 9.86084V10.0557L51.9137 10.2323ZM53.6476 11.8064C53.6476 13.0797 52.8341 14.1057 51.5426 14.1058C50.7291 14.1057 50.2163 13.7343 50.2163 13.1156C50.2163 12.3727 50.7643 12.0187 52.0027 11.8772L53.6476 11.6648V11.8064ZM59.2179 14.5665V15.6801H56.971V4.38211H59.2179V7.86139C59.7135 7.10099 60.792 6.62298 61.9246 6.62298C64.5605 6.62298 66.312 8.40943 66.312 11.2227C66.312 14.036 64.5605 15.8224 61.9246 15.8224C60.7928 15.8224 59.7135 15.3269 59.2179 14.5665ZM61.624 13.8936C63.039 13.8936 64.0475 12.8143 64.0475 11.2227C64.0475 9.6311 63.039 8.5335 61.624 8.5335C60.209 8.5335 59.2179 9.61283 59.2179 11.2227C59.2179 12.8326 60.209 13.8936 61.624 13.8936ZM69.307 4.38211H67.06V15.6801H69.307V4.38211ZM70.1544 11.222C70.1544 8.53285 72.0474 6.62233 74.6475 6.62233C77.5666 6.62233 79.3355 8.86929 78.9466 11.6993H72.3838C72.5604 13.1676 73.4806 13.9463 74.7366 13.9463C75.7451 13.9463 76.4172 13.4865 76.6296 12.7611H78.8583C78.5218 14.5833 77.001 15.8218 74.7541 15.8218C71.9766 15.8218 70.1544 13.9112 70.1544 11.222ZM76.6288 10.0544C76.5938 9.02837 75.7976 8.35626 74.6475 8.35626C73.4974 8.35626 72.772 8.92257 72.4896 10.0544H76.6288ZM33.5484 15.6808H31.0822H31.0815L30.1232 12.8858H25.7975L24.8392 15.6808H22.373L26.4171 4.38211H29.5043L33.5484 15.6808ZM27.9607 6.7265L26.4772 10.9045H29.4442L27.9607 6.7265Z" fill="black"></path>
</svg>
