<?xml version="1.0" encoding="UTF-8"?>
<svg xmlns="http://www.w3.org/2000/svg" xmlns:xlink="http://www.w3.org/1999/xlink" width="161px" height="70px" viewBox="0 0 161 70" version="1.1">
  <title>AB0B3A63-FDDB-46E2-A846-01C51B5A069C</title>
  <defs>
    <polygon id="path-1" points="0.415590321 0.876590909 108.750933 0.876590909 108.750933 28.2975 0.415590321 28.2975"></polygon>
    <polygon id="path-3" points="5.58193805e-05 0.383939394 44.8754822 0.383939394 44.8754822 41.516947 5.58193805e-05 41.516947"></polygon>
  </defs>
  <g id="Ausarbeitung-für-Livegang" stroke="none" stroke-width="1" fill="none" fill-rule="evenodd">
    <g id="BIKEKO-65-Kontakt" transform="translate(-102.000000, -77.000000)">
      <g id="DT/Header2" transform="translate(0.000000, -30.000000)">
        <g id="Logo/Fit+Claim/Positiv" transform="translate(102.000000, 107.000000)">
          <g id="Group-3" transform="translate(51.200000, 7.040727)">
            <mask id="mask-2" fill="white">
              <use xlink:href="#path-1"></use>
            </mask>
            <g id="Clip-2"></g>
            <path d="M95.3330133,6.47128788 L105.931413,6.47128788 C106.145813,6.47128788 106.341013,6.34719697 106.43168,6.15522727 L108.725013,1.26583333 C108.810347,1.0844697 108.677013,0.876590909 108.475413,0.876590909 L72.5554133,0.876590909 C72.3410133,0.876590909 72.1458133,0.999621212 72.0551467,1.19265152 L69.7618133,6.08098485 C69.67648,6.26340909 69.8098133,6.47128788 70.0114133,6.47128788 L80.3975467,6.47128788 L70.2194133,27.9061364 C70.1330133,28.0885606 70.2663467,28.2975 70.4690133,28.2975 L84.6194133,28.2975 C84.8327467,28.2975 85.02688,28.1755303 85.1186133,27.9835606 L95.3330133,6.47128788 Z M25.4439467,6.70780303 L41.57088,6.70780303 C41.7831467,6.70780303 41.97728,6.58583333 42.0679467,6.39598485 L44.52768,1.2775 C44.6151467,1.09613636 44.4818133,0.876590909 44.2791467,0.876590909 L18.1970133,0.876590909 C15.26368,0.876590909 12.6642133,2.16840909 11.7575467,4.07537879 L0.442346667,27.9061364 C0.355946667,28.0885606 0.48928,28.2975 0.691946667,28.2975 L14.8434133,28.2975 C15.05568,28.2975 15.2498133,28.1755303 15.3415467,27.9835606 L20.3175467,17.5037121 L36.43808,17.5037121 C36.6514133,17.5037121 36.8455467,17.3806818 36.93728,17.1887121 L39.3703467,12.062803 C39.4578133,11.8803788 39.3234133,11.6703788 39.1218133,11.6703788 L23.09408,11.6703788 L25.4439467,6.70780303 Z M66.1330133,1.26689394 L53.4471467,27.9835606 C53.35648,28.1755303 53.1623467,28.2975 52.9490133,28.2975 L38.7975467,28.2975 C38.5959467,28.2975 38.4615467,28.0885606 38.5479467,27.9061364 L51.2338133,1.1905303 C51.32448,0.998560606 51.51968,0.876590909 51.7330133,0.876590909 L65.8834133,0.876590909 C66.08608,0.876590909 66.2183467,1.0844697 66.1330133,1.26689394 L66.1330133,1.26689394 Z" id="Fill-1" fill="#000000" mask="url(#mask-2)"></path>
          </g>
          <g id="Group-6" transform="translate(0.000000, 0.677091)">
            <mask id="mask-4" fill="white">
              <use xlink:href="#path-3"></use>
            </mask>
            <g id="Clip-5"></g>
            <path d="M9.86634667,0.383727273 L9.45568,0.383727273 C2.18741333,0.383727273 -2.35445333,8.20781818 1.27861333,14.4653939 L9.93568,29.3743333 C10.1831467,29.800697 10.8402133,29.625697 10.8402133,29.1325152 L10.8402133,1.351 C10.8402133,0.817515152 10.4039467,0.383727273 9.86634667,0.383727273 M38.60128,21.260697 L14.4167467,35.1461515 C13.94848,35.4134242 13.78848,36.0084242 14.0583467,36.4729697 L14.2610133,36.8229697 C17.8951467,43.0816061 26.9799467,43.0816061 30.61408,36.8229697 L39.26688,21.9214545 C39.5154133,21.4940303 39.03328,21.0135758 38.60128,21.260697 M43.59648,14.4653939 L43.3906133,14.8196364 C43.1218133,15.2820606 42.5266133,15.4411515 42.0615467,15.1738788 L17.8802133,1.29266667 C17.44608,1.04342424 17.6242133,0.383727273 18.12448,0.383727273 L35.4194133,0.383727273 C42.68768,0.383727273 47.2306133,8.20781818 43.59648,14.4653939" id="Fill-4" fill="#D00070" mask="url(#mask-4)"></path>
          </g>
          <path d="M56.1522133,54.8077727 L51.8439467,54.8077727 C51.6914133,54.8077727 51.61568,54.7239848 51.61568,54.5542879 L51.61568,45.4786818 C51.61568,45.3100455 51.6914133,45.225197 51.8439467,45.225197 L56.1522133,45.225197 C56.2951467,45.225197 56.36768,45.3100455 56.36768,45.4786818 L56.36768,46.2391364 C56.36768,46.4077727 56.2951467,46.4926212 56.1522133,46.4926212 L53.0834133,46.4926212 C52.9746133,46.4926212 52.92128,46.5424697 52.92128,46.6411061 L52.92128,49.1600455 C52.92128,49.2597424 52.9746133,49.3085303 53.0834133,49.3085303 L55.6807467,49.3085303 C55.8418133,49.3085303 55.92288,49.3933788 55.92288,49.5620152 L55.92288,50.3224697 C55.92288,50.4911061 55.8418133,50.5759545 55.6807467,50.5759545 L53.0834133,50.5759545 C52.9746133,50.5759545 52.92128,50.625803 52.92128,50.7244394 L52.92128,53.3780758 C52.92128,53.4873182 52.9746133,53.5414091 53.0834133,53.5414091 L56.1522133,53.5414091 C56.2951467,53.5414091 56.36768,53.6262576 56.36768,53.7938333 L56.36768,54.5542879 C56.36768,54.7239848 56.2951467,54.8077727 56.1522133,54.8077727" id="Fill-7" fill="#000000"></path>
          <path d="M60.9298133,50.6497727 L58.2642133,50.6497727 C58.1127467,50.6497727 58.0370133,50.5606818 58.0370133,50.3814394 L58.0370133,49.7259848 C58.0370133,49.5467424 58.1127467,49.4576515 58.2642133,49.4576515 L60.9298133,49.4576515 C61.0823467,49.4576515 61.1591467,49.5467424 61.1591467,49.7259848 L61.1591467,50.3814394 C61.1591467,50.5606818 61.0823467,50.6497727 60.9298133,50.6497727" id="Fill-9" fill="#000000"></path>
          <path d="M63.0845867,54.5546061 L63.0845867,45.479 C63.0845867,45.3103636 63.16032,45.2255152 63.3128533,45.2255152 L66.5032533,45.2255152 C67.1677867,45.2255152 67.6829867,45.4238485 68.0509867,45.8215758 C68.4189867,46.219303 68.60352,46.7803636 68.60352,47.5058182 L68.60352,48.2355152 C68.60352,49.1009697 68.23552,49.6567273 67.49952,49.9049091 C67.8493867,49.9547576 68.13952,50.1233939 68.36672,50.4118788 C68.5960533,50.699303 68.7101867,51.0874848 68.7101867,51.574303 L68.7101867,52.5277879 C68.7101867,53.2532424 68.52672,53.8153636 68.1597867,54.2120303 C67.79072,54.608697 67.27872,54.8080909 66.6248533,54.8080909 L63.3128533,54.8080909 C63.16032,54.8080909 63.0845867,54.7232424 63.0845867,54.5546061 M64.5384533,49.3088485 L66.2877867,49.3088485 C66.9693867,49.3088485 67.31072,48.9461212 67.31072,48.2206667 L67.31072,47.5355152 C67.31072,46.8196061 66.9789867,46.4632424 66.3144533,46.4632424 L64.5384533,46.4632424 C64.4392533,46.4632424 64.3901867,46.5130909 64.3901867,46.6106667 L64.3901867,49.1603636 C64.3901867,49.2600606 64.4392533,49.3088485 64.5384533,49.3088485 M64.5384533,53.5703636 L66.4221867,53.5703636 C67.09632,53.5703636 67.43232,53.2129394 67.43232,52.4980909 L67.43232,51.574303 C67.43232,50.8583939 67.07712,50.5009697 66.3688533,50.5009697 L64.5384533,50.5009697 C64.4392533,50.5009697 64.3901867,50.5508182 64.3901867,50.6505152 L64.3901867,53.4218788 C64.3901867,53.5215758 64.4392533,53.5703636 64.5384533,53.5703636" id="Fill-11" fill="#000000"></path>
          <path d="M72.2913067,45.4787879 L72.2913067,54.5543939 C72.2913067,54.7219697 72.2145067,54.8078788 72.0619733,54.8078788 L71.2139733,54.8078788 C71.06144,54.8078788 70.98464,54.7219697 70.98464,54.5543939 L70.98464,45.4787879 C70.98464,45.3101515 71.06144,45.225303 71.2139733,45.225303 L72.0619733,45.225303 C72.2145067,45.225303 72.2913067,45.3101515 72.2913067,45.4787879" id="Fill-13" fill="#000000"></path>
          <path d="M75.8043733,54.8077727 L74.9563733,54.8077727 C74.8027733,54.8077727 74.7281067,54.7239848 74.7281067,54.5542879 L74.7281067,45.4786818 C74.7281067,45.3100455 74.8027733,45.225197 74.9563733,45.225197 L75.8043733,45.225197 C75.9569067,45.225197 76.0337067,45.3100455 76.0337067,45.4786818 L76.0337067,50.2026212 L76.07424,50.2026212 C76.16384,49.9353485 76.27904,49.6871667 76.4241067,49.4580758 L78.9947733,45.4786818 C79.0929067,45.3100455 79.2369067,45.225197 79.42464,45.225197 L80.4219733,45.225197 C80.6097067,45.225197 80.6417067,45.3206515 80.5169067,45.5083788 L77.8907733,49.4580758 L80.85184,54.5097424 C80.9595733,54.7091364 80.90624,54.8077727 80.6907733,54.8077727 L79.93664,54.8077727 C79.6945067,54.8077727 79.52384,54.7239848 79.42464,54.5542879 L77.0961067,50.5165606 L76.0337067,51.9017121 L76.0337067,54.5542879 C76.0337067,54.7239848 75.9569067,54.8077727 75.8043733,54.8077727" id="Fill-15" fill="#000000"></path>
          <path d="M87.0439467,54.8077727 L82.73568,54.8077727 C82.5831467,54.8077727 82.5074133,54.7239848 82.5074133,54.5542879 L82.5074133,45.4786818 C82.5074133,45.3100455 82.5831467,45.225197 82.73568,45.225197 L87.0439467,45.225197 C87.18688,45.225197 87.2594133,45.3100455 87.2594133,45.4786818 L87.2594133,46.2391364 C87.2594133,46.4077727 87.18688,46.4926212 87.0439467,46.4926212 L83.97408,46.4926212 C83.8663467,46.4926212 83.8130133,46.5424697 83.8130133,46.6411061 L83.8130133,49.1600455 C83.8130133,49.2597424 83.8663467,49.3085303 83.97408,49.3085303 L86.57248,49.3085303 C86.7335467,49.3085303 86.8146133,49.3933788 86.8146133,49.5620152 L86.8146133,50.3224697 C86.8146133,50.4911061 86.7335467,50.5759545 86.57248,50.5759545 L83.97408,50.5759545 C83.8663467,50.5759545 83.8130133,50.625803 83.8130133,50.7244394 L83.8130133,53.3780758 C83.8130133,53.4873182 83.8663467,53.5414091 83.97408,53.5414091 L87.0439467,53.5414091 C87.18688,53.5414091 87.2594133,53.6262576 87.2594133,53.7938333 L87.2594133,54.5542879 C87.2594133,54.7239848 87.18688,54.8077727 87.0439467,54.8077727" id="Fill-17" fill="#000000"></path>
          <path d="M93.35744,52.4830303 L93.35744,52.0959091 C93.35744,51.9262121 93.4331733,51.8424242 93.5857067,51.8424242 L94.44864,51.8424242 C94.6001067,51.8424242 94.6769067,51.9262121 94.6769067,52.0959091 L94.6769067,52.3642424 C94.6769067,52.7810606 94.75904,53.0812121 94.92544,53.264697 C95.0907733,53.4492424 95.36704,53.5415152 95.7531733,53.5415152 L96.6811733,53.5415152 C97.0673067,53.5415152 97.3467733,53.4439394 97.5163733,53.2509091 C97.68704,53.0568182 97.77344,52.7407576 97.77344,52.3037879 L97.77344,51.9612121 C97.77344,51.6440909 97.6625067,51.3927273 97.4427733,51.2092424 C97.22304,51.024697 96.95104,50.9059091 96.6289067,50.8507576 C96.3057067,50.7966667 95.9505067,50.7192424 95.56544,50.6206061 C95.17824,50.5209091 94.8241067,50.4063636 94.5019733,50.2769697 C94.1777067,50.1486364 93.9067733,49.904697 93.68704,49.5472727 C93.4673067,49.1898485 93.35744,48.7327273 93.35744,48.1759091 L93.35744,47.5512121 C93.35744,46.8257576 93.54304,46.2562121 93.9163733,45.8436364 C94.28864,45.4310606 94.8017067,45.225303 95.4577067,45.225303 L96.88384,45.225303 C97.5473067,45.225303 98.0667733,45.4310606 98.43904,45.8436364 C98.8113067,46.2562121 98.9969067,46.8257576 98.9969067,47.5512121 L98.9969067,47.8778788 C98.9969067,48.0475758 98.9201067,48.1313636 98.76864,48.1313636 L97.9067733,48.1313636 C97.75424,48.1313636 97.6785067,48.0475758 97.6785067,47.8778788 L97.6785067,47.6837879 C97.6785067,47.2574242 97.5953067,46.9519697 97.4289067,46.7684848 C97.2625067,46.5839394 96.9873067,46.4927273 96.6011733,46.4927273 L95.7531733,46.4927273 C95.36704,46.4927273 95.0907733,46.5881818 94.92544,46.7833333 C94.75904,46.9763636 94.6769067,47.3062121 94.6769067,47.7739394 L94.6769067,48.2363636 C94.6769067,48.6828788 94.9681067,48.9862121 95.5515733,49.145303 C95.81184,49.215303 96.09664,49.2736364 96.4059733,49.3234848 C96.7153067,49.3733333 97.0267733,49.4475758 97.34144,49.5472727 C97.65504,49.6459091 97.94304,49.7774242 98.2033067,49.9418182 C98.4635733,50.1062121 98.6747733,50.3543939 98.83584,50.6874242 C98.9969067,51.0204545 99.0779733,51.4245455 99.0779733,51.9018182 L99.0779733,52.4830303 C99.0779733,53.2074242 98.8923733,53.7769697 98.51904,54.1884848 C98.14784,54.6021212 97.6337067,54.8078788 96.9777067,54.8078788 L95.4705067,54.8078788 C94.8155733,54.8078788 94.3003733,54.6021212 93.9227733,54.1884848 C93.5451733,53.7769697 93.35744,53.2074242 93.35744,52.4830303" id="Fill-19" fill="#000000"></path>
          <path d="M103.896533,54.8077727 L103.034667,54.8077727 C102.882133,54.8077727 102.8064,54.7239848 102.8064,54.5542879 L102.8064,51.2611061 L100.289067,45.4945909 C100.253867,45.4150455 100.253867,45.3492879 100.289067,45.3005 C100.325333,45.2506515 100.3744,45.225197 100.437333,45.225197 L101.5136,45.225197 C101.630933,45.225197 101.720533,45.3100455 101.783467,45.4786818 L103.438933,49.5779242 L103.52,49.5779242 L105.147733,45.4786818 C105.202133,45.3100455 105.291733,45.225197 105.4176,45.225197 L106.494933,45.225197 C106.5664,45.225197 106.6176,45.2506515 106.6496,45.3005 C106.680533,45.3492879 106.6784,45.4150455 106.642133,45.4945909 L104.125867,51.2611061 L104.125867,54.5542879 C104.125867,54.7239848 104.049067,54.8077727 103.896533,54.8077727" id="Fill-21" fill="#000000"></path>
          <path d="M107.84032,52.4830303 L107.84032,52.0959091 C107.84032,51.9262121 107.916053,51.8424242 108.068587,51.8424242 L108.930453,51.8424242 C109.082987,51.8424242 109.159787,51.9262121 109.159787,52.0959091 L109.159787,52.3642424 C109.159787,52.7810606 109.24192,53.0812121 109.40832,53.264697 C109.573653,53.4492424 109.84992,53.5415152 110.236053,53.5415152 L111.16512,53.5415152 C111.550187,53.5415152 111.829653,53.4439394 111.999253,53.2509091 C112.16992,53.0568182 112.25632,52.7407576 112.25632,52.3037879 L112.25632,51.9612121 C112.25632,51.6440909 112.145387,51.3927273 111.925653,51.2092424 C111.70592,51.024697 111.43392,50.9059091 111.111787,50.8507576 C110.788587,50.7966667 110.433387,50.7192424 110.04832,50.6206061 C109.66112,50.5209091 109.306987,50.4063636 108.984853,50.2769697 C108.660587,50.1486364 108.389653,49.904697 108.16992,49.5472727 C107.950187,49.1898485 107.84032,48.7327273 107.84032,48.1759091 L107.84032,47.5512121 C107.84032,46.8257576 108.02592,46.2562121 108.399253,45.8436364 C108.77152,45.4310606 109.284587,45.225303 109.93952,45.225303 L111.36672,45.225303 C112.030187,45.225303 112.549653,45.4310606 112.92192,45.8436364 C113.294187,46.2562121 113.479787,46.8257576 113.479787,47.5512121 L113.479787,47.8778788 C113.479787,48.0475758 113.404053,48.1313636 113.25152,48.1313636 L112.389653,48.1313636 C112.23712,48.1313636 112.161387,48.0475758 112.161387,47.8778788 L112.161387,47.6837879 C112.161387,47.2574242 112.078187,46.9519697 111.911787,46.7684848 C111.745387,46.5839394 111.46912,46.4927273 111.084053,46.4927273 L110.236053,46.4927273 C109.84992,46.4927273 109.573653,46.5881818 109.40832,46.7833333 C109.24192,46.9763636 109.159787,47.3062121 109.159787,47.7739394 L109.159787,48.2363636 C109.159787,48.6828788 109.450987,48.9862121 110.034453,49.145303 C110.29472,49.215303 110.57952,49.2736364 110.888853,49.3234848 C111.199253,49.3733333 111.509653,49.4475758 111.82432,49.5472727 C112.13792,49.6459091 112.42592,49.7774242 112.686187,49.9418182 C112.946453,50.1062121 113.157653,50.3543939 113.31872,50.6874242 C113.479787,51.0204545 113.560853,51.4245455 113.560853,51.9018182 L113.560853,52.4830303 C113.560853,53.2074242 113.374187,53.7769697 113.00192,54.1884848 C112.629653,54.6021212 112.116587,54.8078788 111.460587,54.8078788 L109.953387,54.8078788 C109.298453,54.8078788 108.783253,54.6021212 108.405653,54.1884848 C108.028053,53.7769697 107.84032,53.2074242 107.84032,52.4830303" id="Fill-23" fill="#000000"></path>
          <path d="M117.88192,54.8077727 L117.03392,54.8077727 C116.871787,54.8077727 116.791787,54.7239848 116.791787,54.5542879 L116.791787,46.6411061 C116.791787,46.5424697 116.746987,46.4926212 116.65632,46.4926212 L114.961387,46.4926212 C114.799253,46.4926212 114.719253,46.4077727 114.719253,46.2391364 L114.719253,45.4786818 C114.719253,45.3100455 114.799253,45.225197 114.961387,45.225197 L119.95552,45.225197 C120.11552,45.225197 120.196587,45.3100455 120.196587,45.4786818 L120.196587,46.2391364 C120.196587,46.4077727 120.11552,46.4926212 119.95552,46.4926212 L118.258453,46.4926212 C118.16032,46.4926212 118.111253,46.5424697 118.111253,46.6411061 L118.111253,54.5542879 C118.111253,54.7239848 118.033387,54.8077727 117.88192,54.8077727" id="Fill-25" fill="#000000"></path>
          <path d="M126.294933,54.8077727 L121.986667,54.8077727 C121.834133,54.8077727 121.7584,54.7239848 121.7584,54.5542879 L121.7584,45.4786818 C121.7584,45.3100455 121.834133,45.225197 121.986667,45.225197 L126.294933,45.225197 C126.437867,45.225197 126.5104,45.3100455 126.5104,45.4786818 L126.5104,46.2391364 C126.5104,46.4077727 126.437867,46.4926212 126.294933,46.4926212 L123.225067,46.4926212 C123.117333,46.4926212 123.064,46.5424697 123.064,46.6411061 L123.064,49.1600455 C123.064,49.2597424 123.117333,49.3085303 123.225067,49.3085303 L125.823467,49.3085303 C125.984533,49.3085303 126.0656,49.3933788 126.0656,49.5620152 L126.0656,50.3224697 C126.0656,50.4911061 125.984533,50.5759545 125.823467,50.5759545 L123.225067,50.5759545 C123.117333,50.5759545 123.064,50.625803 123.064,50.7244394 L123.064,53.3780758 C123.064,53.4873182 123.117333,53.5414091 123.225067,53.5414091 L126.294933,53.5414091 C126.437867,53.5414091 126.5104,53.6262576 126.5104,53.7938333 L126.5104,54.5542879 C126.5104,54.7239848 126.437867,54.8077727 126.294933,54.8077727" id="Fill-27" fill="#000000"></path>
          <path d="M134.546027,45.2256212 L136.053227,45.2256212 C136.206827,45.2256212 136.28256,45.3104697 136.28256,45.4791061 L136.28256,54.5536515 C136.28256,54.7222879 136.206827,54.808197 136.053227,54.808197 L135.219093,54.808197 C135.06656,54.808197 134.98976,54.7222879 134.98976,54.5536515 L134.98976,47.0286515 L134.936427,47.0286515 L133.187093,52.4833485 C133.132693,52.6424394 133.033493,52.7209242 132.89056,52.7209242 L132.028693,52.7209242 C131.894293,52.7209242 131.800427,52.6424394 131.746027,52.4833485 L129.95616,47.013803 L129.902827,47.013803 L129.902827,54.5536515 C129.902827,54.6533485 129.88576,54.7212273 129.854827,54.7551667 C129.823893,54.7901667 129.763093,54.808197 129.673493,54.808197 L128.85216,54.808197 C128.699627,54.808197 128.623893,54.7222879 128.623893,54.5536515 L128.623893,45.4791061 C128.623893,45.3104697 128.699627,45.2256212 128.85216,45.2256212 L130.360427,45.2256212 C130.45856,45.2256212 130.530027,45.2807727 130.574827,45.3900152 L132.419093,51.1416818 L132.48736,51.1416818 L134.344427,45.3900152 C134.36256,45.2807727 134.428693,45.2256212 134.546027,45.2256212" id="Fill-29" fill="#000000"></path>
          <path d="M52.9220267,60.2873939 L52.9220267,69.363 C52.9220267,69.5305758 52.8462933,69.6164848 52.69376,69.6164848 L51.8446933,69.6164848 C51.69216,69.6164848 51.61536,69.5305758 51.61536,69.363 L51.61536,60.2873939 C51.61536,60.1187576 51.69216,60.0339091 51.8446933,60.0339091 L52.69376,60.0339091 C52.8462933,60.0339091 52.9220267,60.1187576 52.9220267,60.2873939" id="Fill-31" fill="#000000"></path>
          <path d="M56.4215467,69.6159545 L55.5863467,69.6159545 C55.4338133,69.6159545 55.35808,69.5311061 55.35808,69.3624697 L55.35808,60.2868636 C55.35808,60.1182273 55.4338133,60.0333788 55.5863467,60.0333788 L56.34048,60.0333788 C56.48448,60.0333788 56.5826133,60.0885303 56.6370133,60.1977727 L59.8946133,66.680197 L59.9479467,66.680197 L59.9479467,60.2868636 C59.9479467,60.1182273 60.02368,60.0333788 60.17728,60.0333788 L61.0114133,60.0333788 C61.1639467,60.0333788 61.2407467,60.1182273 61.2407467,60.2868636 L61.2407467,69.3624697 C61.2407467,69.5311061 61.1639467,69.6159545 61.0114133,69.6159545 L60.2850133,69.6159545 C60.1410133,69.6159545 60.02368,69.5364091 59.93408,69.3773182 L56.70528,62.9691364 L56.6498133,62.9691364 L56.6498133,69.3624697 C56.6498133,69.5311061 56.57408,69.6159545 56.4215467,69.6159545" id="Fill-33" fill="#000000"></path>
          <path d="M65.97824,69.6159545 L65.13024,69.6159545 C64.9681067,69.6159545 64.8881067,69.5311061 64.8881067,69.3624697 L64.8881067,61.4492879 C64.8881067,61.3506515 64.8433067,61.300803 64.7537067,61.300803 L63.0577067,61.300803 C62.8955733,61.300803 62.8155733,61.2159545 62.8155733,61.0473182 L62.8155733,60.2868636 C62.8155733,60.1182273 62.8955733,60.0333788 63.0577067,60.0333788 L68.05184,60.0333788 C68.21184,60.0333788 68.2929067,60.1182273 68.2929067,60.2868636 L68.2929067,61.0473182 C68.2929067,61.2159545 68.21184,61.300803 68.05184,61.300803 L66.3547733,61.300803 C66.25664,61.300803 66.2075733,61.3506515 66.2075733,61.4492879 L66.2075733,69.3624697 C66.2075733,69.5311061 66.1297067,69.6159545 65.97824,69.6159545" id="Fill-35" fill="#000000"></path>
          <path d="M74.3917867,69.6159545 L70.08352,69.6159545 C69.9309867,69.6159545 69.8552533,69.5311061 69.8552533,69.3624697 L69.8552533,60.2868636 C69.8552533,60.1182273 69.9309867,60.0333788 70.08352,60.0333788 L74.3917867,60.0333788 C74.5357867,60.0333788 74.6072533,60.1182273 74.6072533,60.2868636 L74.6072533,61.0473182 C74.6072533,61.2159545 74.5357867,61.300803 74.3917867,61.300803 L71.3229867,61.300803 C71.2141867,61.300803 71.1608533,61.3506515 71.1608533,61.4492879 L71.1608533,63.9682273 C71.1608533,64.0679242 71.2141867,64.1167121 71.3229867,64.1167121 L73.92032,64.1167121 C74.0813867,64.1167121 74.1624533,64.2015606 74.1624533,64.370197 L74.1624533,65.1306515 C74.1624533,65.2992879 74.0813867,65.3841364 73.92032,65.3841364 L71.3229867,65.3841364 C71.2141867,65.3841364 71.1608533,65.4339848 71.1608533,65.5326212 L71.1608533,68.185197 C71.1608533,68.2955 71.2141867,68.3495909 71.3229867,68.3495909 L74.3917867,68.3495909 C74.5357867,68.3495909 74.6072533,68.4333788 74.6072533,68.6020152 L74.6072533,69.3624697 C74.6072533,69.5311061 74.5357867,69.6159545 74.3917867,69.6159545" id="Fill-37" fill="#000000"></path>
          <path d="M80.1121067,69.6159545 L78.6721067,69.6159545 C78.0065067,69.6159545 77.4945067,69.4123182 77.1307733,69.0050455 C76.76704,68.5977727 76.5857067,68.0314091 76.5857067,67.3070152 L76.5857067,62.3444394 C76.5857067,61.6083788 76.76704,61.0398939 77.1307733,60.6368636 C77.4945067,60.2348939 78.0065067,60.0333788 78.6721067,60.0333788 L80.1121067,60.0333788 C80.7755733,60.0333788 81.2897067,60.2348939 81.65344,60.6368636 C82.0171733,61.0398939 82.1985067,61.6083788 82.1985067,62.3444394 L82.1985067,62.8800455 C82.1985067,63.0592879 82.1217067,63.1483788 81.9691733,63.1483788 L81.12224,63.1483788 C80.96864,63.1483788 80.89184,63.0592879 80.89184,62.8800455 L80.89184,62.4038333 C80.89184,61.6677727 80.5697067,61.300803 79.9243733,61.300803 L78.8609067,61.300803 C78.2145067,61.300803 77.8913067,61.6677727 77.8913067,62.4038333 L77.8913067,67.2465606 C77.8913067,67.9815606 78.2145067,68.3495909 78.8609067,68.3495909 L79.9243733,68.3495909 C80.5697067,68.3495909 80.89184,67.9815606 80.89184,67.2465606 L80.89184,65.9059545 C80.89184,65.8062576 80.8427733,65.7564091 80.74464,65.7564091 L79.6545067,65.7564091 C79.5019733,65.7564091 79.4251733,65.6726212 79.4251733,65.5029242 L79.4251733,64.7435303 C79.4251733,64.5738333 79.5019733,64.4889848 79.6545067,64.4889848 L81.91584,64.4889848 C82.10464,64.4889848 82.1985067,64.5939848 82.1985067,64.8029242 L82.1985067,67.3070152 C82.1985067,68.0314091 82.01504,68.5977727 81.6459733,69.0050455 C81.27904,69.4123182 80.76704,69.6159545 80.1121067,69.6159545" id="Fill-39" fill="#000000"></path>
          <path d="M85.5069867,69.6159545 L84.66112,69.6159545 C84.5085867,69.6159545 84.43392,69.5311061 84.43392,69.3624697 L84.43392,60.2868636 C84.43392,60.1182273 84.5085867,60.0333788 84.66112,60.0333788 L87.8024533,60.0333788 C88.4552533,60.0333788 88.9672533,60.240197 89.33952,60.6517121 C89.71072,61.0642879 89.8952533,61.6338333 89.8952533,62.3582273 L89.8952533,63.6097424 C89.8952533,64.7530758 89.47072,65.4732273 88.6205867,65.7712576 L88.6205867,65.8306515 L90.11072,69.3179242 C90.2088533,69.5173182 90.1512533,69.6159545 89.9357867,69.6159545 L89.1037867,69.6159545 C88.8893867,69.6159545 88.75072,69.5311061 88.6877867,69.3624697 L87.2509867,65.9345909 L85.89632,65.9345909 C85.7885867,65.9345909 85.7352533,65.9844394 85.7352533,66.0841364 L85.7352533,69.3624697 C85.7352533,69.5311061 85.65952,69.6159545 85.5069867,69.6159545 M85.8824533,64.7435303 L87.5869867,64.7435303 C88.2504533,64.7435303 88.58112,64.380803 88.58112,63.6542879 L88.58112,62.4038333 C88.58112,61.6677727 88.2504533,61.300803 87.5869867,61.300803 L85.8824533,61.300803 C85.7832533,61.300803 85.7352533,61.3506515 85.7352533,61.4492879 L85.7352533,64.5939848 C85.7352533,64.6936818 85.7832533,64.7435303 85.8824533,64.7435303" id="Fill-41" fill="#000000"></path>
          <path d="M92.6033067,69.6159545 L91.6347733,69.6159545 C91.5089067,69.6159545 91.46304,69.5311061 91.4993067,69.3624697 L93.8417067,60.2868636 C93.8865067,60.1182273 93.99424,60.0344394 94.1649067,60.0344394 L95.51104,60.0344394 C95.69024,60.0344394 95.7979733,60.1182273 95.8331733,60.2868636 L98.1755733,69.3624697 C98.21184,69.5311061 98.1627733,69.6159545 98.0283733,69.6159545 L97.07264,69.6159545 C96.9915733,69.6159545 96.93504,69.5989848 96.9041067,69.5639848 C96.8731733,69.5289848 96.8475733,69.4621667 96.82944,69.3624697 L96.3185067,67.425803 L93.35744,67.425803 L92.84544,69.3624697 C92.8091733,69.5311061 92.7291733,69.6159545 92.6033067,69.6159545 L92.6033067,69.6159545 Z M94.8113067,61.4641364 L93.6273067,66.2326212 L96.0625067,66.2326212 L94.86464,61.4641364 L94.8113067,61.4641364 Z" id="Fill-43" fill="#000000"></path>
          <path d="M101.474133,69.6159545 L100.626133,69.6159545 C100.464,69.6159545 100.384,69.5311061 100.384,69.3624697 L100.384,61.4492879 C100.384,61.3506515 100.3392,61.300803 100.248533,61.300803 L98.5525333,61.300803 C98.3914667,61.300803 98.3114667,61.2159545 98.3114667,61.0473182 L98.3114667,60.2868636 C98.3114667,60.1182273 98.3914667,60.0333788 98.5525333,60.0333788 L103.547733,60.0333788 C103.707733,60.0333788 103.7888,60.1182273 103.7888,60.2868636 L103.7888,61.0473182 C103.7888,61.2159545 103.707733,61.300803 103.547733,61.300803 L101.850667,61.300803 C101.751467,61.300803 101.703467,61.3506515 101.703467,61.4492879 L101.703467,69.3624697 C101.703467,69.5311061 101.6256,69.6159545 101.474133,69.6159545" id="Fill-45" fill="#000000"></path>
          <path d="M106.72416,60.2873939 L106.72416,69.363 C106.72416,69.5305758 106.64736,69.6164848 106.494827,69.6164848 L105.646827,69.6164848 C105.494293,69.6164848 105.417493,69.5305758 105.417493,69.363 L105.417493,60.2873939 C105.417493,60.1187576 105.494293,60.0339091 105.646827,60.0339091 L106.494827,60.0339091 C106.64736,60.0339091 106.72416,60.1187576 106.72416,60.2873939" id="Fill-47" fill="#000000"></path>
          <path d="M112.6736,69.6159545 L111.112,69.6159545 C110.447467,69.6159545 109.9344,69.4123182 109.570667,69.0050455 C109.208,68.5977727 109.0256,68.0314091 109.0256,67.3070152 L109.0256,62.3444394 C109.0256,61.6083788 109.208,61.0398939 109.570667,60.6379242 C109.9344,60.2348939 110.447467,60.0344394 111.112,60.0344394 L112.6736,60.0344394 C113.338133,60.0344394 113.853333,60.2348939 114.221333,60.6379242 C114.589333,61.0398939 114.7728,61.6083788 114.7728,62.3444394 L114.7728,67.3070152 C114.7728,68.0314091 114.589333,68.5977727 114.221333,69.0050455 C113.853333,69.4123182 113.338133,69.6159545 112.6736,69.6159545 M111.3008,68.3495909 L112.472,68.3495909 C113.125867,68.3495909 113.4544,67.9826212 113.4544,67.2476212 L113.4544,62.4038333 C113.4544,61.6677727 113.125867,61.300803 112.472,61.300803 L111.3008,61.300803 C110.6544,61.300803 110.3312,61.6677727 110.3312,62.4038333 L110.3312,67.2476212 C110.3312,67.9826212 110.6544,68.3495909 111.3008,68.3495909" id="Fill-49" fill="#000000"></path>
          <path d="M118.057493,69.6159545 L117.222293,69.6159545 C117.06976,69.6159545 116.994027,69.5311061 116.994027,69.3624697 L116.994027,60.2868636 C116.994027,60.1182273 117.06976,60.0333788 117.222293,60.0333788 L117.976427,60.0333788 C118.11936,60.0333788 118.21856,60.0885303 118.27296,60.1977727 L121.53056,66.680197 L121.583893,66.680197 L121.583893,60.2868636 C121.583893,60.1182273 121.659627,60.0333788 121.81216,60.0333788 L122.64736,60.0333788 C122.798827,60.0333788 122.875627,60.1182273 122.875627,60.2868636 L122.875627,69.3624697 C122.875627,69.5311061 122.798827,69.6159545 122.64736,69.6159545 L121.92096,69.6159545 C121.77696,69.6159545 121.659627,69.5364091 121.570027,69.3773182 L118.34016,62.9691364 L118.28576,62.9691364 L118.28576,69.3624697 C118.28576,69.5311061 118.20896,69.6159545 118.057493,69.6159545" id="Fill-51" fill="#000000"></path>
        </g>
      </g>
    </g>
  </g>
</svg>
