<svg xmlns="http://www.w3.org/2000/svg" xmlns:svg="http://www.w3.org/2000/svg" viewBox="0 0 1778.0945 663.68779" id="svg33" width="1778.0946" height="663.68774"><defs id="defs23"><clipPath id="c"><path d="M 28.9276,62.2628 C 14.6503,61.7203 -3.1271,13.1871 10.66,6.2881 c 8.9776,-4.5039 66.3662,2.8057 70.1455,13.7002 5.3291,15.3565 -37.0297,42.2808 -51.455,42.2828 -0.1451,0 -0.2852,-0.003 -0.4229,-0.0083 M 6.3798,4.8004 C -6.9298,15.94 8.265,64.8746 27.0209,68.0504 53.2704,72.4966 93.2343,37.3946 85.6405,20.2774 80.0018,7.5611 48.5087,1.0933 26.6112,1.0914 c -9.5518,0 -17.2715,1.2304 -20.2314,3.709" style="fill:none;stroke-width:0px" id="path1"></path></clipPath><linearGradient id="d" x1="49.357498" y1="156.0274" x2="50.519699" y2="156.0274" gradientTransform="matrix(-43.0487,0.00112701,0.00112701,43.0487,2216.3377,-6680.0378)" gradientUnits="userSpaceOnUse"><stop offset="0" stop-color="#f8aa9e" id="stop1"></stop><stop offset=".0714" stop-color="#f58a85" id="stop2"></stop><stop offset=".1768" stop-color="#f26266" id="stop3"></stop><stop offset=".2806" stop-color="#f0434e" id="stop4"></stop><stop offset=".3811" stop-color="#ee2d3d" id="stop5"></stop><stop offset=".4767" stop-color="#ed1f32" id="stop6"></stop><stop offset=".5622" stop-color="#ed1b2f" id="stop7"></stop><stop offset=".6858" stop-color="#e91a2e" id="stop8"></stop><stop offset=".7913" stop-color="#df1a2b" id="stop9"></stop><stop offset=".89" stop-color="#cd1a26" id="stop10"></stop><stop offset=".9842" stop-color="#b41a20" id="stop11"></stop><stop offset="1" stop-color="#b01a1f" id="stop12"></stop></linearGradient><clipPath id="e"><path d="m 9.8353,4.8321 c -16.5884,8.5981 4.876,59.811 22.1455,60.6538 C 48.9296,66.3121 89.1063,36.9879 82.1727,20.7872 77.7987,10.5757 46.7753,2.1685 25.6376,2.1661 c -6.606,0 -12.2432,0.8218 -15.8023,2.666" style="fill:none;stroke-width:0px" id="path12"></path></clipPath><radialGradient id="f" cx="50.605202" cy="159.705" fx="50.605202" fy="159.705" r="1.1622" gradientTransform="matrix(-49.8688,-4.3518738e-4,3.6464379e-4,-41.7851,2589.6636,6692.0331)" gradientUnits="userSpaceOnUse"><stop offset="0" stop-color="#f8aa9e" id="stop13"></stop><stop offset=".0714" stop-color="#f58a85" id="stop14"></stop><stop offset=".1768" stop-color="#f26266" id="stop15"></stop><stop offset=".2806" stop-color="#f0434e" id="stop16"></stop><stop offset=".3811" stop-color="#ee2d3d" id="stop17"></stop><stop offset=".4767" stop-color="#ed1f32" id="stop18"></stop><stop offset=".5622" stop-color="#ed1b2f" id="stop19"></stop><stop offset=".7142" stop-color="#e91b2e" id="stop20"></stop><stop offset=".8439" stop-color="#df1d2c" id="stop21"></stop><stop offset=".965" stop-color="#cd1f28" id="stop22"></stop><stop offset="1" stop-color="#c72127" id="stop23"></stop></radialGradient></defs><g id="g33" transform="scale(6)"><g id="g23" transform="translate(-102.246,61.041829)"><path d="m 236.0521,49.1461 c 4.0235,0 8.1973,-0.8233 10.8477,-1.6143 v -15.207 h -11.8242 v 4.6631 h 5.1523 v 7.4658 c -0.8848,0.3349 -2.3476,0.4863 -3.9629,0.4863 -6.3984,0 -10.8496,-4.418 -10.8496,-10.7549 0,-6.0957 4.0234,-10.6055 10.4844,-10.6055 3.9922,0 6.4297,1.127 8.5019,1.9815 0.4883,-1.0977 1.1582,-2.6826 1.1582,-3.5664 0,-0.9443 -0.6093,-1.7061 -1.9199,-2.041 -1.8887,-0.4893 -4.2656,-0.7012 -6.7969,-0.7012 -11.6699,0 -18.7089,6.0029 -18.7382,15.2979 0,4.3261 1.6445,8.1054 4.5996,10.666 3.0781,2.6504 7.4668,3.9297 13.3476,3.9297 z M 381.1947,25.2554 c -1.584,0 -2.1914,0.6104 -2.1914,2.8946 0,0.6396 0.0566,1.3095 0.0898,1.5849 h 6.7637 v 19.0449 h 5.8828 V 29.7349 h 4.6602 c 1.5859,0 2.1953,-0.6103 2.1953,-2.8945 0,-0.6397 -0.0606,-1.3106 -0.0898,-1.585 z M 140.9154,49.5728 c 1.7383,0 3.6572,-0.7617 3.6572,-0.7617 l -1.9189,-6.7031 c -0.7315,-2.5 -1.7676,-3.7491 -3.5049,-4.3594 v -0.0908 c 2.2544,-0.7608 4.6309,-2.8028 4.6309,-5.7588 0,-4.7852 -3.7779,-6.7959 -10.9395,-6.7959 -3.1992,0 -6.0029,0.1826 -7.8921,0.5176 v 23.1591 h 5.8814 V 39.273 h 1.7368 c 2.4687,0 3.687,1.249 4.4492,4.0225 l 1.1587,4.1748 c 0.3657,1.3095 1.2485,2.1025 2.7412,2.1025 z m -7.7705,-13.6523 h -2.3154 V 29.064 c 0.4272,-0.1211 1.1884,-0.3037 2.4995,-0.3037 2.5596,0 4.5405,1.0049 4.5405,3.6572 0,2.0108 -1.7983,3.503 -4.7246,3.503 z m 232.9658,2.956 h 7.1309 v -4.4482 h -7.1309 v -4.6934 h 8.0742 c 1.586,0 2.1954,-0.6103 2.1954,-2.8945 0,-0.6397 -0.0606,-1.3106 -0.0899,-1.585 h -16.0605 v 23.5244 h 16.6074 c 0.0293,-0.2734 0.0918,-0.9443 0.0918,-1.5839 0,-2.2852 -0.6094,-2.8955 -2.1934,-2.8955 h -8.625 z M 104.4408,25.2554 c -1.5859,0 -2.1948,0.6104 -2.1948,2.8946 0,0.6396 0.0615,1.4023 0.0918,1.6757 h 6.7646 v 18.9541 h 5.8814 V 29.8257 h 4.6621 c 1.5849,0 2.1938,-0.6093 2.1938,-2.8945 0,-0.6396 -0.061,-1.4014 -0.0918,-1.6758 z m 184.1484,23.8907 c 6.8555,0 10.9082,-3.4434 10.9082,-10.6963 v -10.878 c 0,-2.0722 -1.4004,-2.6816 -3.0175,-2.6816 -1.4004,0 -1.9786,0.2129 -2.8633,0.6709 v 13.1943 c 0,4.1739 -1.7363,6.1553 -4.8438,6.1553 -3.0195,0 -4.7851,-2.0723 -4.7851,-6.1553 V 27.5718 c 0,-2.0722 -1.4024,-2.6816 -3.0176,-2.6816 -1.4004,0 -1.9805,0.2129 -2.8652,0.6709 v 12.8271 c 0,7.4678 3.8711,10.7579 10.4843,10.7579 z m 48.42,-21.8184 c -0.5489,-1.5547 -1.5528,-2.4375 -4.6622,-2.4375 -1.3691,0 -2.8027,0.2744 -3.8691,0.7002 l -1.6758,23.1894 h 5.4844 c 0.6387,-11.8828 0.791,-15.4794 0.916,-18.6777 h 0.0899 c 1.4336,6.1533 3.4746,12.0654 5.4238,18.2813 h 4.6328 c 3.5039,-9.6602 5.1191,-15.0528 5.9102,-18.2813 h 0.0605 c -0.0918,4.0215 0.5195,15.1436 0.6719,18.6777 h 5.7578 l -1.3399,-23.1894 c -1.0058,-0.4258 -2.5898,-0.7002 -3.9296,-0.7002 -2.5918,0 -4.084,0.6396 -4.6621,2.4678 -1.8907,6.0341 -3.7188,12.0966 -4.2676,14.1689 h -0.1524 C 340.2396,36.774 338.1693,30.649 337.0092,27.3277 Z m -74.6895,21.8184 c 7.6797,0 12.1289,-4.6319 12.1289,-12.3721 0,-6.4902 -3.6562,-11.8838 -11.7324,-11.8838 -7.709,0 -12.0059,4.875 -12.0059,11.9141 0,6.7041 3.8399,12.3418 11.6094,12.3418 z m 0.2441,-4.2061 c -4.0839,0 -5.7265,-4.2031 -5.7265,-8.2568 0,-4.084 1.584,-7.5879 5.7265,-7.5879 4.1465,0 5.6993,3.9306 5.6993,7.8613 0,4.2354 -1.6153,7.9834 -5.6993,7.9834 z m -100.4697,-2.1924 1.7984,6.0322 h 6.3994 c 0,0 -6.521,-18.8925 -7.0699,-20.416 -0.8837,-2.4384 -2.4072,-3.4736 -5.0268,-3.4736 -1.4634,0 -2.957,0.3037 -4.2061,0.9141 -0.6098,1.8886 -7.6489,22.9755 -7.6489,22.9755 h 6.1553 l 1.645,-6.0322 z m -6.9482,-3.9922 2.7734,-9.5078 h 0.1226 l 2.9853,9.5078 z m 25.355,-11.9463 c -0.9761,-1.3711 -2.0723,-1.9189 -4.0831,-1.9189 -1.3408,0 -2.6826,0.2432 -3.749,0.6709 v 23.2187 h 5.4859 v -7.0996 c 0,-3.0166 -0.0918,-7.1298 -0.3047,-10.2685 h 0.1513 c 1.1587,2.3457 4.7535,8.5625 7.2832,12.6758 l 2.8951,4.6923 h 6.2461 v -21.208 c 0,-2.0722 -1.2481,-2.6816 -2.7422,-2.6816 -1.3408,0 -1.8887,0.2129 -2.7417,0.6709 v 6.5518 c 0,2.4062 0.1216,6.7031 0.4878,9.8105 h -0.0918 c -2.2549,-4.4482 -4.2666,-8.5928 -8.8369,-15.1143 z m 25.8403,22.337 c 6.3984,0 9.4453,-3.3829 9.4453,-7.4346 0,-3.9932 -2.1621,-5.669 -6.9473,-7.1611 -3.4726,-1.0665 -4.3886,-1.5245 -4.3886,-3.1084 0,-1.4014 0.9453,-2.378 4.0839,-2.378 2.8028,0 4.3282,0.9453 5.5157,1.5244 0,0 1.0058,-1.7988 1.0058,-3.0166 0,-0.7929 -0.4863,-1.4023 -1.6465,-1.8291 -1.1875,-0.4257 -3.0156,-0.8525 -6.0312,-0.8525 -5.5469,0 -9.0513,2.6514 -9.0513,6.7344 0,3.8398 2.4673,5.5459 6.8872,6.8867 3.7168,1.1279 4.418,1.9795 4.418,3.5351 0,1.9805 -1.25,2.8643 -4.2051,2.8643 -2.7441,0 -4.7539,-0.9756 -6.3081,-1.8281 0,0 -1.0664,2.1631 -1.0664,3.1689 0,1.0664 0.5781,1.4922 1.6152,1.9199 1.4019,0.5791 3.4742,0.9747 6.6734,0.9747 z m 113.6953,0.4267 c 1.7383,0 3.6563,-0.7617 3.6563,-0.7617 l -1.918,-6.7031 c -0.7324,-2.5 -1.7695,-3.7491 -3.5059,-4.3594 v -0.0908 c 2.2559,-0.7608 4.6328,-2.8028 4.6328,-5.7588 0,-4.7852 -3.7793,-6.7959 -10.9414,-6.7959 -3.1992,0 -6.0019,0.1826 -7.8925,0.5176 v 23.1591 h 5.8808 V 39.273 h 1.7383 c 2.4668,0 3.6875,1.249 4.4492,4.0225 l 1.1582,4.1748 c 0.3652,1.3095 1.2481,2.1025 2.7422,2.1025 z M 312.265,35.9205 h -2.3164 V 29.064 c 0.4277,-0.1211 1.1895,-0.3037 2.5,-0.3037 2.5606,0 4.541,1.0049 4.541,3.6572 0,2.0108 -1.7988,3.503 -4.7246,3.503 z" style="fill:#ed1b2f;stroke-width:0px" id="path23"></path></g><g id="b" transform="translate(105.37508,-1.0914)"><path d="m 13.4935,32.1177 c -0.0288,0.2168 -0.0132,0.6358 0.4854,0.9444 0.8887,0.5498 7.7573,2.8305 15.4087,2.0844 7.3281,-0.7099 9.062,-1.4765 9.582,-2.5546 0.1289,-0.2237 0.3364,-0.5894 0.1626,-1.2198 -0.0439,-0.1552 -0.0928,-0.3066 -0.144,-0.4355 -0.5132,-1.2056 -1.5103,-0.9605 -2.4034,-0.7437 -0.1347,0.0318 -0.7876,0.2227 -0.7876,0.2227 -1.2968,0.3882 -3.9921,1.2007 -9.9062,1.3364 -5.0601,0.1206 -8.2554,-0.5181 -9.793,-0.8276 l -1.2876,-0.1573 c -0.4619,0.1187 -1.2094,0.6978 -1.3169,1.3506 m 25.6407,-0.7407 -0.002,-0.0049 z" style="fill:#ffffff;stroke-width:0px" id="path24"></path><path d="m 14.7469,24.8502 -0.1528,0.6059 0.0405,0.1797 c 0.0596,0.4443 0.2027,1.3682 1.4942,1.5469 l 0.375,0.0552 c 1.5093,0.2167 4.6348,0.6684 9.7822,0.6293 l 4.9131,0.0289 c 2.5371,0.0283 3.4922,0.0468 3.8652,-0.2452 0.4825,-0.3662 0.5049,-0.4741 0.4883,-0.9453 L 35.5468,26.4063 C 35.5262,25.2149 34.3402,25.045 33.1844,25.0338 l -1.6879,0.0156 -6.7041,-0.0811 c -2.5044,-0.1304 -5.2041,-0.4726 -6.983,-0.7138 l -1.7993,-0.1841 c -0.4087,0.0346 -0.9995,0.4023 -1.2632,0.7798" style="fill:#ffffff;stroke-width:0px" id="path25"></path><g clip-path="url(#c)" id="g25"><rect x="-13.7674" y="-24.613701" width="113.8412" height="122.8146" transform="rotate(-57.7436,43.153201,36.793567)" style="fill:url(#d);stroke-width:0px" id="rect25"></rect></g><g clip-path="url(#e)" id="g26"><rect x="-11.7156" y="-5.8898001" width="105.7871" height="80.258202" transform="rotate(-10.3058,41.178002,34.239047)" style="fill:url(#f);stroke-width:0px" id="rect26"></rect></g><path d="m 81.1298,14.6915 c -3.5245,1.0644 -8.9444,2.6157 -16.3565,4.519 -12.2676,3.1484 -20.4228,2.8071 -23.1123,2.6939 -1.0957,-0.044 -1.5039,-0.7164 -2.1313,-1.7442 -0.7603,-1.2378 -1.6983,-2.7895 -4.3091,-3.7724 -1.4151,-0.5396 -2.5401,-0.6851 -10.3013,-0.8379 l -6.3691,-0.1534 c -5.0269,-0.1494 -6.3736,-0.184 -6.8819,0.4014 -0.2592,0.2832 -0.1967,0.6592 -0.1767,0.7788 0.227,1.4312 2.0786,3.1011 14.4595,3.3189 8.6875,0.1582 9.8125,2.0424 11.0029,4.04 l 0.54,0.8687 0.5039,0.8212 c 0.607,1.0464 1.2315,2.1231 2.9532,2.3726 1.8154,0.2666 8.9472,-1.0239 21.8691,-3.3574 l 5.1348,-0.9321 c 7.1836,-1.2935 13.0849,-3.0171 16.9189,-4.8575 -0.915,-1.4804 -2.1787,-2.8681 -3.7441,-4.1596" style="fill:#ffffff;stroke-width:0px" id="path26"></path><path d="m 81.1122,14.6392 c -3.2354,0.98 -8.7041,2.5576 -16.3535,4.5215 C 52.496,22.3087 44.3407,21.9654 41.663,21.8541 40.5985,21.8091 40.1957,21.15 39.5848,20.1529 38.7938,18.8653 37.85,17.3233 35.2401,16.3404 33.8055,15.794 32.6859,15.6519 24.9213,15.5025 l -6.3711,-0.1582 c -5.0396,-0.1494 -6.3892,-0.189 -6.9234,0.4199 -0.185,0.2066 -0.2514,0.4824 -0.185,0.8257 0.2265,1.4458 2.0835,3.1387 14.5073,3.3574 8.6626,0.1597 9.7754,2.0313 10.9585,4.0147 l 0.5425,0.8706 0.5,0.8174 c 0.6191,1.0649 1.2549,2.1499 2.9941,2.4013 1.8223,0.2657 8.9209,-1.0166 21.8145,-3.3452 l 5.207,-0.9453 c 7.0195,-1.2671 13.0312,-2.9937 16.9287,-4.8638 l 0.0508,-0.0224 -0.0264,-0.0523 C 84.0243,17.3736 82.7606,15.9708 81.1649,14.6465 L 81.1444,14.6319 Z M 64.788,19.2628 c 7.624,-1.961 13.0888,-3.5342 16.3339,-4.5152 1.5577,1.2945 2.7891,2.6636 3.67,4.0811 -3.8867,1.8574 -9.8643,3.5722 -16.8428,4.8266 l -5.2109,0.9463 c -12.877,2.3277 -19.9717,3.6109 -21.7793,3.3487 -1.689,-0.2476 -2.312,-1.3121 -2.9107,-2.3389 -0.0063,-0.0176 -0.5058,-0.833 -0.5058,-0.833 L 36.9999,23.9068 C 35.8041,21.9 34.6722,19.9986 25.9564,19.8433 13.6049,19.6265 11.7675,17.9796 11.5409,16.5684 c -0.0542,-0.3066 0,-0.5527 0.1655,-0.7348 0.4986,-0.5699 1.9697,-0.5269 6.8399,-0.3853 l 6.373,0.1587 c 7.7427,0.147 8.8638,0.29 10.2861,0.8315 2.5728,0.9688 3.5088,2.4932 4.2608,3.7203 0.6572,1.0732 1.0766,1.7524 2.1919,1.7998 2.6826,0.1123 10.8476,0.4536 23.1299,-2.6958" style="fill:#ffffff;stroke-width:0px" id="path27"></path><path d="m 86.0575,21.3985 c -4.126,2.727 -17.792,10.3467 -41.8604,14.3857 -18.7968,3.1621 -36.5268,0.8033 -40.4843,0.3555 0.416,1.5357 0.8838,3.0674 1.3999,4.5859 3.3667,1.5123 15.5854,5.3028 26.2876,6.4615 11.7685,1.2734 11.75,-2.4019 12.0381,-3.4492 0.309,-1.0557 1.375,-2.1114 2.6357,-2.4546 1.2695,-0.3413 5.9062,0.3432 21.6035,-4.6758 10.3262,-3.2984 16.2236,-8.0977 18.8945,-11.3335 0.0245,-1.3589 -0.1386,-2.6548 -0.5146,-3.8755" style="fill:#ffffff;stroke-width:0px" id="path28"></path><path d="M 86.0262,21.3575 C 83.5331,23.0015 69.8134,31.4356 44.1932,35.732 32.3588,37.7227 18.9774,37.8707 4.4271,36.1705 l -0.7837,-0.0918 0.0205,0.0776 c 0.418,1.5459 0.8877,3.0918 1.399,4.5899 3.7373,1.6938 16.042,5.3793 26.3315,6.4965 11.0557,1.1953 11.7461,-1.9326 12.041,-3.2636 l 0.0537,-0.2281 c 0.316,-1.08 1.4131,-2.0976 2.5996,-2.4165 0.253,-0.0654 0.6426,-0.0962 1.2383,-0.1347 2.3467,-0.1607 7.8418,-0.5376 20.3643,-4.544 11.7119,-3.7407 17.1357,-9.1831 18.9199,-11.3491 0.0469,-1.4048 -0.1309,-2.7158 -0.5088,-3.9229 l -0.0205,-0.0673 z m -41.8173,14.48 C 69.6825,31.5621 83.3964,23.21 86.0184,21.4844 c 0.333,1.086 0.501,2.2549 0.501,3.479 v 0.3086 c -1.7725,2.1284 -7.1748,7.5533 -18.8584,11.2867 -12.5107,4.0014 -17.998,4.3745 -20.3418,4.5366 -0.5986,0.04 -0.9971,0.0654 -1.2558,0.1411 -1.2217,0.3301 -2.3482,1.3755 -2.6739,2.4849 l -0.0566,0.2353 C 43.0428,45.2623 42.368,48.3213 31.4066,47.1382 21.1273,46.0225 8.8363,42.3409 5.1322,40.6783 4.66,39.2398 4.2001,37.7203 3.7875,36.2012 c 0.1245,0.0152 0.6284,0.0733 0.6284,0.0733 14.5596,1.7036 27.9492,1.5561 39.793,-0.437" style="fill:#ffffff;stroke-width:0px" id="path29"></path><path d="m 10.9852,30.3238 c -0.0307,0.2163 -0.0156,0.6352 0.4839,0.9438 0.8882,0.5498 7.7598,2.8306 15.4107,2.0835 7.3286,-0.708 9.0581,-1.4741 9.5825,-2.5532 0.1245,-0.2251 0.333,-0.5889 0.1592,-1.2202 -0.0406,-0.1553 -0.0899,-0.3086 -0.1451,-0.4351 -0.5127,-1.206 -1.5078,-0.9624 -2.3989,-0.7441 -0.1362,0.0317 -0.789,0.2231 -0.789,0.2231 -1.2984,0.3892 -3.9932,1.2002 -9.9063,1.3365 -5.062,0.1196 -8.2549,-0.5171 -9.7959,-0.8277 l -1.2832,-0.1577 c -0.4658,0.1167 -1.2109,0.6973 -1.3179,1.3511 m 25.6407,-0.7407 -0.0044,-0.0054 z" style="fill:#ffffff;stroke-width:0px" id="path30"></path><path d="m 34.0629,28.3487 -0.7876,0.2217 c -1.2906,0.3882 -3.98,1.2016 -9.8931,1.3354 -5.0454,0.1196 -8.2397,-0.518 -9.7764,-0.8227 -0.0131,-0.0039 -1.2964,-0.1592 -1.2964,-0.1592 -0.5131,0.1206 -1.2651,0.7109 -1.3754,1.3916 h -0.002 c -0.0347,0.229 -0.0146,0.6724 0.5098,0.9985 0.8911,0.5484 7.7563,2.8394 15.4453,2.0913 7.3476,-0.7109 9.0928,-1.4858 9.6191,-2.5849 0.1299,-0.2227 0.3462,-0.6011 0.1646,-1.2539 L 36.5297,29.1221 C 35.9955,27.8746 34.9706,28.127 34.0629,28.3487 m -10.6787,1.6626 c 5.9296,-0.1353 8.6211,-0.9497 9.9174,-1.3428 l 0.7871,-0.2207 c 0.9063,-0.2187 1.8462,-0.4497 2.3409,0.7173 l 0.145,0.4292 c 0.1616,0.6089 -0.0386,0.9663 -0.1592,1.1777 -0.5151,1.0679 -2.2397,1.8223 -9.5395,2.5303 -7.6636,0.7471 -14.4971,-1.5317 -15.379,-2.0796 -0.3872,-0.2368 -0.4711,-0.5434 -0.4711,-0.7612 0,-0.0469 0.0083,-0.0928 0.0131,-0.1284 0.1001,-0.6304 0.8208,-1.1949 1.2774,-1.3091 0,0.0049 1.2651,0.1592 1.2651,0.1592 1.5459,0.3086 4.7481,0.9482 9.8028,0.8281" style="fill:#ffffff;stroke-width:0px" id="path31"></path><path d="m 12.2396,23.0547 -0.1562,0.607 0.0429,0.1787 c 0.0591,0.4443 0.2041,1.3701 1.4937,1.5478 l 0.373,0.0542 c 1.5083,0.2159 4.6348,0.6695 9.7828,0.6294 l 4.9135,0.0298 c 2.5391,0.0288 3.4917,0.0469 3.8638,-0.2451 0.4839,-0.3657 0.5088,-0.4741 0.4893,-0.9453 L 33.037,24.6119 c -0.02,-1.1914 -1.2056,-1.3609 -2.3604,-1.3721 l -1.6899,0.0151 -6.7046,-0.0815 C 19.7806,23.0445 17.078,22.6993 15.3011,22.46 l -1.8027,-0.1831 c -0.4067,0.0342 -0.9971,0.4019 -1.2588,0.7778" style="fill:#ffffff;stroke-width:0px" id="path32"></path><path d="m 12.1967,23.0259 -0.0039,0.0064 -0.1617,0.6201 c 0,0.0254 0.043,0.2036 0.043,0.2036 0.0596,0.4146 0.1924,1.3975 1.5391,1.5845 l 0.375,0.0561 c 1.5644,0.2207 4.6982,0.6675 9.7876,0.6304 l 4.9126,0.0259 0.1801,0.0019 c 2.4317,0.0298 3.3399,0.0401 3.7149,-0.2553 0.4956,-0.375 0.5283,-0.503 0.5088,-0.9912 L 33.0883,24.607 c -0.0215,-1.2315 -1.229,-1.4111 -2.4117,-1.4214 l -1.6899,0.0181 -6.7017,-0.0816 c -2.4707,-0.1308 -5.166,-0.4658 -6.976,-0.7109 l -1.8062,-0.1841 c -0.4292,0.0308 -1.0342,0.4067 -1.3061,0.7988 m 1.3042,-0.6948 1.7939,0.1831 c 1.8149,0.2442 4.5063,0.5855 6.9873,0.7119 l 6.7046,0.0801 1.6899,-0.0146 c 1.1324,0.0083 2.2891,0.1738 2.3067,1.3203 l 0.0088,0.2993 c 0.0166,0.4487 0.0053,0.5425 -0.4707,0.9023 -0.3506,0.273 -1.3184,0.2627 -3.6509,0.2369 l -0.1812,-0.002 -4.9135,-0.0327 c -5.0826,0.0449 -8.2154,-0.4024 -9.7193,-0.6192 -0.0542,-0.0083 -0.4365,-0.059 -0.4365,-0.059 -1.2627,-0.1748 -1.3872,-1.0699 -1.4434,-1.501 0,-0.0073 -0.041,-0.1812 -0.041,-0.1841 0,0 0.1411,-0.5386 0.1514,-0.5713 0.251,-0.3638 0.8296,-0.7212 1.2139,-0.75" style="fill:#ffffff;stroke-width:0px" id="path33"></path></g></g></svg>